<svg xmlns="http://www.w3.org/2000/svg" fill="none" viewBox="0 0 925 413" height="413" width="925">
<path fill="black" d="M0 128.961V193.46H188.667C210.596 193.46 238.614 173.182 238.614 139.638C238.614 126.147 243.774 117.346 227.917 99.501L203.785 70.9075C189.957 58.0079 205.437 58.0079 217.051 58.0079H296.708V193.46H359.881V58.0079H445.024V0H169.317C135.773 0 119.371 32.2084 120.293 48.9781C121.221 65.7477 124.306 86.8461 152.181 112.192C177.608 135.304 139.592 128.961 135.773 128.961H0ZM584.713 0H482.8L425.67 193.465H489.25L499.565 166.375H566.643L576.601 193.465H638.882L584.713 0ZM513.76 119.931L535.689 48.9781L556.334 119.931H513.76ZM840.132 128.961C815.623 128.961 815.623 119.931 815.623 119.931C836.624 119.931 855.245 89.3342 855.245 58.0079C855.245 26.6815 824.653 0 800.133 0H663.024V193.465H732.693V128.966C732.693 128.966 762.357 163.796 777.836 177.985C793.321 192.175 794.606 193.465 815.618 193.465H924.98V128.966C924.99 128.961 864.642 128.961 840.132 128.961ZM776.919 83.8123H732.703V48.9781H776.919C797.191 48.9781 800.699 83.8123 776.919 83.8123ZM0 217.969H71.2746L89.3342 282.478L106.104 217.969H180.927L200.277 282.478L219.631 217.969H281.55L224.786 411.48H168.027L143.156 319.882L115.134 411.48H57.085L0 217.969ZM427.826 219.086H325.914L268.788 412.546H332.364L342.683 385.461H409.767L419.725 412.546H482.01L427.826 219.086ZM356.878 339.012L378.807 268.059L399.447 339.012H356.878ZM841.417 276.028C829.818 276.028 817.168 277.384 831 290.279L855.138 318.877C870.99 336.723 870.735 344.162 870.735 357.663C870.735 391.202 837.552 411.48 815.623 411.48L663.192 412.505C642.191 412.505 640.906 411.22 625.421 397.03C609.947 382.841 580.272 348.006 580.272 348.006V412.505H510.614V219.045H647.723C672.232 219.045 702.835 245.732 702.835 277.053C702.835 308.384 684.214 338.977 663.202 338.977C663.202 338.977 672.441 348.266 687.921 348.266C703.406 348.266 763.009 348.328 763.009 348.328C766.823 348.328 804.834 354.67 779.412 331.558C751.537 306.212 748.453 285.124 747.525 268.354C746.597 251.585 761.097 217.974 794.626 217.974H925V276.033L841.417 276.028ZM624.493 302.852H580.267V268.018H624.493C644.771 268.018 648.273 302.852 624.493 302.852Z" clip-rule="evenodd" fill-rule="evenodd"></path>
</svg>
