<svg viewBox="0 0 500 38.6" version="1.1" xmlns="http://www.w3.org/2000/svg">
  
  <g id="svg22322">
    
    <g id="layer1">
      <g id="g14356">
        <g id="g2508">
          <path d="M325.6,30.8h44.6v-5.1h-30.9V3.6s-13.6,0-13.6,0v27.2Z" id="path2510"></path>
        </g>
        <g id="g2512">
          <path d="M68.6,3.6v27.2h13.6v-11.1h23.7v11.1h13.6V3.6h-13.6v11.1h-23.7V3.6s-13.6,0-13.6,0Z" id="path2514"></path>
        </g>
        <g id="g2516">
          <path d="M239.2,3.6l-12.7,11.5-13.1-11.5h-15.8s19.2,16,19.3,16.1v11.1h13.6v-11.3c.1,0,17.9-15.9,17.9-15.9h-9.2Z" id="path2518"></path>
        </g>
        <g id="g2520">
          <path d="M385.4,30.8h45.4v-4.6h-31.8v-6.9h30.6v-4.6h-30.6v-6.5h31.2V3.6s-44.9,0-44.9,0v27.2Z" id="path2522"></path>
        </g>
        <g id="g2524">
          <path d="M259.7,10.6c0,6.3,7.3,7.8,17.1,9,10.1,1.3,14.8,1.6,14.8,4s-3,3.2-11.7,3.2-18.2-2.4-19.3-2.8c0,.3-1.3,5.7-1.3,5.7,1.4.3,9.2,2.1,21.2,2.1s25.8-2.3,25.8-9.4-5.1-7.4-19.8-9.1c-6.1-.7-12.4-1.2-12.4-3.5s1.7-2.5,10.4-2.5,15.8,1.8,16.9,2.1l1.1-5.3c-1.5-.3-10.1-1.8-21.3-1.8s-21.5,1.3-21.5,8.3" id="path2526"></path>
        </g>
        <g id="g2528">
          <path d="M3.3,17.2c0,8.8,9.2,14.8,28.4,14.8s15.2-1.1,16.5-1.3l1.2-5.7c-1.7.2-8,1.1-14.8,1.1-10.6,0-17.8-2.6-17.8-8.9s6.8-9,18-9,13,.9,14.7,1.1l-1.2-5.7c-1.9-.2-8.7-1.2-16.1-1.2C12.7,2.4,3.3,8.2,3.3,17.2" id="path2530"></path>
        </g>
        <g id="g2532">
          <path d="M140.6,30.8h13.6V8.4c1.9-.1,3.9-.3,7.1-.3s5.7,0,7.7.3c4.2.6,5.5,2,5.5,3.8,0,1.8-1.8,3.5-6,4.1-2.7.4-4.6.4-7,.4s-2.5,0-4.1,0l15.5,14.1h17.3l-15.7-11.3c3.1-.2,4.2-.4,7.3-1.3,4.2-1.4,6.2-3.5,6.2-5.9,0-3.2-2-5.9-9.6-7.6-4.2-1-9.6-1.4-16.8-1.4-9.8,0-19.9.4-20.9.4v27.2Z" id="path2534"></path>
        </g>
        <g id="g2536">
          <path d="M448.8,30.8h13.6V8.4c1.9-.1,3.9-.3,7.1-.3s5.7,0,7.7.3c4.1.6,5.5,2,5.4,3.8,0,1.8-1.8,3.5-6,4.1-2.7.4-4.6.4-7,.4s-2.5,0-4.1,0l15.5,14.1h17.3l-15.7-11.3c3.1-.2,4.2-.4,7.3-1.3,4.1-1.4,6.2-3.5,6.2-5.9,0-3.2-2-5.9-9.7-7.6-4.2-1-9.6-1.4-16.8-1.4-9.8,0-19.9.4-20.9.4v27.2Z" id="path2538"></path>
        </g>
      </g>
    </g>
  </g>
</svg>