<svg viewBox="0 0 2500 260" version="1.1" xmlns="http://www.w3.org/2000/svg" id="Layer_1">
  
  <path d="M751.7,8.5h-145.8v249.3h156.6c83.7,0,110.1-32.2,110.1-100.4v-52.2c0-70.8-37.2-96.7-121-96.7ZM804.7,153.4c0,23-13.3,37.3-49.9,37.3h-86.4v-117.2h86.4c34.6,0,49.9,5.9,49.9,34.1v45.8Z"></path>
  <path d="M1467.6,8.5h-145.8v249.3h156.6c83.7,0,110.2-32.2,110.2-100.4v-52.2c0-70.8-37.3-96.7-121-96.7ZM1520.6,153.4c0,23-13.3,37.3-49.9,37.3h-86.5v-117.2h86.5c34.6,0,49.9,5.9,49.9,34.1v45.8Z"></path>
  <path d="M906.5,8.5v249.3h66.5V8.5h-66.5ZM1198.8,8.5h-101.4l-103.6,249.3h70.3l17-42.9h131.9l18.3,42.9h71.5l-103.9-249.3ZM1106.5,153.9l34.9-82.1h10l35.8,82.1h-80.6Z"></path>
  <path d="M2396.1,8.5h-101.4l-103.6,249.3h70.3l17-42.9h131.9l18.3,42.9h71.5l-103.9-249.3ZM2303.8,153.9l34.9-82.1h10l35.7,82.1h-80.6Z"></path>
  <path d="M1756.5,6.5c-80.9,0-138.3,14.6-138.3,91.4v70.5c0,76.8,57.4,91.4,138.3,91.4s138.3-14.6,138.3-91.4v-70.5c0-76.8-57.4-91.4-138.3-91.4ZM1829.1,154.1c0,32.6-18.7,35.8-71.2,35.8s-69.7-3.2-71.2-35.8v-49.2c1.5-32.3,18.7-35.5,71.2-35.5s71.2,3.2,71.2,35.5v49.2Z"></path>
  <path d="M2148.1,162.1c28.5-11.6,23.6-31.2,23.6-72.8s-37.3-79.8-94.8-80.8h-152.2v249.4h60.1v-66.2h96.2c19.9,0,24.6,12.6,23.9,31.2v34.9h66.5v-47.1c0-28.3-1.4-48.6-23.3-48.6ZM2076.7,128.8h-92v-55.8h92s26.7-3.6,26.7,17.2v23.3s1.4,15.9-26.7,15.4Z"></path>
  <path d="M410.3,1.6S308.4,86.3,0,.2C0,.2,303.1,86.3,383.9,255.7h162.8s-49-70.1-186.6-143c0,0,143-21.2,188-50.3L410.3,1.6Z"></path>
</svg>